# Made in Blockbench 4.11.1
mtllib generator.mtl

o Base
v 0.4375 0.078125 -0.234375
v 0.4375 0.078125 -0.296875
v 0.4375 0.015625 -0.234375
v 0.4375 0.015625 -0.296875
v -0.4375 0.078125 -0.234375
v -0.4375 0.078125 -0.296875
v -0.4375 0.015625 -0.234375
v -0.4375 0.015625 -0.296875
v 0.5 0.625 0.3125
v 0.5 0.625 -0.3125
v 0.5 0 0.3125
v 0.5 0 -0.3125
v 0.4375 0.625 0.3125
v 0.4375 0.625 -0.3125
v 0.4375 0 0.3125
v 0.4375 0 -0.3125
v -0.4375 0.625 0.3125
v -0.4375 0.625 -0.3125
v -0.4375 0 0.3125
v -0.4375 0 -0.3125
v -0.5 0.625 0.3125
v -0.5 0.625 -0.3125
v -0.5 0 0.3125
v -0.5 0 -0.3125
v 0.4375 0.609375 -0.234375
v 0.4375 0.609375 -0.296875
v 0.4375 0.546875 -0.234375
v 0.4375 0.546875 -0.296875
v -0.4375 0.609375 -0.234375
v -0.4375 0.609375 -0.296875
v -0.4375 0.546875 -0.234375
v -0.4375 0.546875 -0.296875
v 0.4375 0.609375 0.296875
v 0.4375 0.609375 0.234375
v 0.4375 0.546875 0.296875
v 0.4375 0.546875 0.234375
v -0.4375 0.609375 0.296875
v -0.4375 0.609375 0.234375
v -0.4375 0.546875 0.296875
v -0.4375 0.546875 0.234375
v 0.4375 0.078125 0.296875
v 0.4375 0.078125 0.234375
v 0.4375 0.015625 0.296875
v 0.4375 0.015625 0.234375
v -0.4375 0.078125 0.296875
v -0.4375 0.078125 0.234375
v -0.4375 0.015625 0.296875
v -0.4375 0.015625 0.234375
v 0.4375 0.5375 0.22499999999999998
v 0.4375 0.5375 -0.22499999999999998
v 0.4375 0.08750000000000002 0.22499999999999998
v 0.4375 0.08750000000000002 -0.22499999999999998
v -0.4375 0.5375 0.22499999999999998
v -0.4375 0.5375 -0.22499999999999998
v -0.4375 0.08750000000000002 0.22499999999999998
v -0.4375 0.08750000000000002 -0.22499999999999998
vt 0.625 0.6875
vt 0.5625 0.6875
vt 0.5625 0.625
vt 0.625 0.625
vt 0.625 0.625
vt 0.625 0.6875
vt 0.5625 0.6875
vt 0.5625 0.625
vt 0.0625 0.375
vt 0.9375 0.375
vt 0.9375 0.4375
vt 0.0625 0.4375
vt 0.9375 0.375
vt 0.9375 0.4375
vt 0.0625 0.4375
vt 0.0625 0.375
vt 0.9375 0.625
vt 0.9375 0.6875
vt 0.0625 0.6875
vt 0.0625 0.625
vt 0.9375 0.6875
vt 0.0625 0.6875
vt 0.0625 0.625
vt 0.9375 0.625
vt 0.8125 1
vt 0.1875 1
vt 0.1875 0.375
vt 0.8125 0.375
vt 0.5625 0.1875
vt 0.5625 0.8125
vt 0.5 0.8125
vt 0.5 0.1875
vt 0.5625 0.375
vt 0.5625 1
vt 0.5 1
vt 0.5 0.375
vt 0.7625000000000014 0.4874999999999986
vt 0.7625000000000014 0.9374999999999986
vt 0.31250000000000144 0.9374999999999986
vt 0.31250000000000144 0.4874999999999986
vt 0.5 0.1875
vt 0.5625 0.1875
vt 0.5625 0.8125
vt 0.5 0.8125
vt 0.5625 1
vt 0.5 1
vt 0.5 0.375
vt 0.5625 0.375
vt 0.8125 1
vt 0.1875 1
vt 0.1875 0.375
vt 0.8125 0.375
vt 0.8125 0.375
vt 0.8125 1
vt 0.1875 1
vt 0.1875 0.375
vt 0.5 0.1875
vt 0.5625 0.1875
vt 0.5625 0.8125
vt 0.5 0.8125
vt 0.5625 0.1875
vt 0.5625 0.8125
vt 0.5 0.8125
vt 0.5 0.1875
vt 0.5625 0.375
vt 0.5625 1
vt 0.5 1
vt 0.5 0.375
vt 0.5625 1
vt 0.5 1
vt 0.5 0.375
vt 0.5625 0.375
vt 0.625 0.75
vt 0.5625 0.75
vt 0.5625 0.6875
vt 0.625 0.6875
vt 0.625 0.6875
vt 0.625 0.75
vt 0.5625 0.75
vt 0.5625 0.6875
vt 0.0625 0.375
vt 0.9375 0.375
vt 0.9375 0.4375
vt 0.0625 0.4375
vt 0.9375 0.375
vt 0.9375 0.4375
vt 0.0625 0.4375
vt 0.0625 0.375
vt 0.9375 0.6875
vt 0.9375 0.75
vt 0.0625 0.75
vt 0.0625 0.6875
vt 0.9375 0.75
vt 0.0625 0.75
vt 0.0625 0.6875
vt 0.9375 0.6875
vt 0.5625 0.75
vt 0.5 0.75
vt 0.5 0.6875
vt 0.5625 0.6875
vt 0.5625 0.6875
vt 0.5625 0.75
vt 0.5 0.75
vt 0.5 0.6875
vt 0.0625 0.4375
vt 0.9375 0.4375
vt 0.9375 0.5
vt 0.0625 0.5
vt 0.9375 0.4375
vt 0.9375 0.5
vt 0.0625 0.5
vt 0.0625 0.4375
vt 0.9375 0.6875
vt 0.9375 0.75
vt 0.0625 0.75
vt 0.0625 0.6875
vt 0.9375 0.75
vt 0.0625 0.75
vt 0.0625 0.6875
vt 0.9375 0.6875
vt 0.5625 0.6875
vt 0.5 0.6875
vt 0.5 0.625
vt 0.5625 0.625
vt 0.5625 0.625
vt 0.5625 0.6875
vt 0.5 0.6875
vt 0.5 0.625
vt 0.0625 0.4375
vt 0.9375 0.4375
vt 0.9375 0.5
vt 0.0625 0.5
vt 0.9375 0.4375
vt 0.9375 0.5
vt 0.0625 0.5
vt 0.0625 0.4375
vt 0.9375 0.625
vt 0.9375 0.6875
vt 0.0625 0.6875
vt 0.0625 0.625
vt 0.9375 0.6875
vt 0.0625 0.6875
vt 0.0625 0.625
vt 0.9375 0.625
vt 0.7499999999999986 0.9125
vt 0.7499999999999986 0.4625
vt 0.8374999999999986 0.375
vt 0.8374999999999986 1
vt 0.275 0.9125
vt 0.725 0.9125
vt 0.8125 1
vt 0.1875 1
vt 0.2125 0.4625
vt 0.2125 0.9125
vt 0.125 1
vt 0.125 0.375
vt 0.725 0.43750000000000144
vt 0.275 0.43750000000000144
vt 0.1875 0.3500000000000014
vt 0.8125 0.3500000000000014
vn 1 0 0
vn -1 0 0
vn 0 1 0
vn 0 -1 0
vn 0 0 1
vn 0 0 -1
vn 1 0 0
vn 0 -1 0
vn 0 0 1
vn -1 0 0
vn 0 1 0
vn 0 0 -1
vn 1 0 0
vn -1 0 0
vn 0 1 0
vn 0 -1 0
vn 0 0 1
vn 0 0 -1
vn 1 0 0
vn -1 0 0
vn 0 1 0
vn 0 -1 0
vn 0 0 1
vn 0 0 -1
vn 1 0 0
vn -1 0 0
vn 0 1 0
vn 0 -1 0
vn 0 0 1
vn 0 0 -1
vn 1 0 0
vn -1 0 0
vn 0 1 0
vn 0 -1 0
vn 0 0 1
vn 0 0 -1
vn -1 0 0
vn -1 0 0
vn -1 0 0
vn -1 0 0
usemtl none
f 2/1/1 1/2/1 3/3/1 4/4/1
f 7/5/2 5/6/2 6/7/2 8/8/2
f 5/9/3 1/10/3 2/11/3 6/12/3
f 4/13/4 3/14/4 7/15/4 8/16/4
f 3/17/5 1/18/5 5/19/5 7/20/5
f 6/21/6 2/22/6 4/23/6 8/24/6
f 10/25/7 9/26/7 11/27/7 12/28/7
f 12/29/8 11/30/8 15/31/8 16/32/8
f 11/33/9 9/34/9 13/35/9 15/36/9
f 55/37/10 53/38/10 54/39/10 56/40/10
f 13/41/11 9/42/11 10/43/11 14/44/11
f 14/45/12 10/46/12 12/47/12 16/48/12
f 18/49/13 17/50/13 19/51/13 20/52/13
f 23/53/14 21/54/14 22/55/14 24/56/14
f 21/57/15 17/58/15 18/59/15 22/60/15
f 20/61/16 19/62/16 23/63/16 24/64/16
f 19/65/17 17/66/17 21/67/17 23/68/17
f 22/69/18 18/70/18 20/71/18 24/72/18
f 26/73/19 25/74/19 27/75/19 28/76/19
f 31/77/20 29/78/20 30/79/20 32/80/20
f 29/81/21 25/82/21 26/83/21 30/84/21
f 28/85/22 27/86/22 31/87/22 32/88/22
f 27/89/23 25/90/23 29/91/23 31/92/23
f 30/93/24 26/94/24 28/95/24 32/96/24
f 34/97/25 33/98/25 35/99/25 36/100/25
f 39/101/26 37/102/26 38/103/26 40/104/26
f 37/105/27 33/106/27 34/107/27 38/108/27
f 36/109/28 35/110/28 39/111/28 40/112/28
f 35/113/29 33/114/29 37/115/29 39/116/29
f 38/117/30 34/118/30 36/119/30 40/120/30
f 42/121/31 41/122/31 43/123/31 44/124/31
f 47/125/32 45/126/32 46/127/32 48/128/32
f 45/129/33 41/130/33 42/131/33 46/132/33
f 44/133/34 43/134/34 47/135/34 48/136/34
f 43/137/35 41/138/35 45/139/35 47/140/35
f 46/141/36 42/142/36 44/143/36 48/144/36
f 49/145/37 51/146/37 15/147/37 13/148/37
f 50/149/38 49/150/38 13/151/38 14/152/38
f 52/153/39 50/154/39 14/155/39 16/156/39
f 51/157/40 52/158/40 16/159/40 15/160/40
o Inner
v 0.4375 0.5375 0.22499999999999998
v 0.4375 0.5375 -0.22499999999999998
v 0.4375 0.08750000000000002 0.22499999999999998
v 0.4375 0.08750000000000002 -0.22499999999999998
v 0.406875 0.5217499999999999 -0.2125
v 0.406875 0.10325000000000001 -0.2125
v 0.406875 0.10325000000000001 0.20625000000000004
v 0.406875 0.5217499999999999 0.20625000000000004
v -0.4375 0.5375 0.22499999999999998
v -0.4375 0.5375 -0.22499999999999998
v -0.4375 0.08750000000000002 0.22499999999999998
v -0.4375 0.08750000000000002 -0.22499999999999998
v -0.406875 0.5217499999999999 -0.2125
v -0.406875 0.10325000000000001 -0.2125
v -0.406875 0.10325000000000001 0.20625000000000004
v -0.406875 0.5217499999999999 0.20625000000000004
vt 0 1
vt 0 0.5814999999999999
vt 0.81375 0.5814999999999999
vt 0.81375 1
vt 0 0.9999999999999986
vt 0 0.5499999999999986
vt 0.875 0.5499999999999986
vt 0.875 0.9999999999999986
vt 0.81375 0.5814999999999999
vt 0.81375 1
vt 0 1
vt 0 0.5814999999999999
vt 0 0.9999999999999986
vt 0 0.5499999999999986
vt 0.875 0.5499999999999986
vt 0.875 0.9999999999999986
vt 0.030625000000000013 0.9842499999999986
vt 0.844375 0.9842499999999986
vt 0.875 0.9999999999999986
vt 0 0.9999999999999986
vt 0.030625000000000013 0.5657499999999986
vt 0.030625000000000013 0.9842499999999986
vt 0 0.9999999999999986
vt 0 0.5499999999999986
vt 0.844375 0.5624999999999973
vt 0.030625000000000013 0.5624999999999973
vt 0 0.5467499999999973
vt 0.875 0.5467499999999973
vt 0.844375 0.5624999999999973
vt 0.030625000000000013 0.5624999999999973
vt 0 0.5467499999999973
vt 0.875 0.5467499999999973
vt 0.8750000000000006 0.9842499999999986
vt 0.8750000000000006 0.5657499999999986
vt 0.9056250000000006 0.5499999999999986
vt 0.9056250000000006 0.9999999999999986
vt 0.030625000000000013 0.9842499999999986
vt 0.844375 0.9842499999999986
vt 0.875 0.9999999999999986
vt 0 0.9999999999999986
vt 0.8750000000000006 0.9842499999999986
vt 0.8750000000000006 0.5657499999999986
vt 0.9056250000000006 0.5499999999999986
vt 0.9056250000000006 0.9999999999999986
vt 0.030625000000000013 0.5657499999999986
vt 0.030625000000000013 0.9842499999999986
vt 0 0.9999999999999986
vt 0 0.5499999999999986
vn 0 0 1
vn 0 1 0
vn 0 0 -1
vn 0 -1 0
vn 0 -0.6216578595640087 -0.7832889030506532
vn -0.3778969974266115 0 -0.9258476436951987
vn 0 0.62165785956401 -0.7832889030506521
vn 0 0.7657048647896103 0.6431920864232743
vn -0.5221538596385283 0 0.8528513040762665
vn 0 -0.7657048647896091 0.6431920864232756
vn 0.3778969974266115 0 -0.9258476436951987
vn 0.5221538596385283 0 0.8528513040762665
usemtl none
f 72/161/41 71/162/41 63/163/41 64/164/41
f 66/165/42 65/166/42 57/167/42 58/168/42
f 70/169/43 69/170/43 61/171/43 62/172/43
f 67/173/44 68/174/44 60/175/44 59/176/44
f 61/177/45 69/178/45 66/179/45 58/180/45
f 62/181/46 61/182/46 58/183/46 60/184/46
f 70/185/47 62/186/47 60/187/47 68/188/47
f 63/189/48 71/190/48 67/191/48 59/192/48
f 64/193/49 63/194/49 59/195/49 57/196/49
f 72/197/50 64/198/50 57/199/50 65/200/50
f 69/201/51 70/202/51 68/203/51 66/204/51
f 71/205/52 72/206/52 65/207/52 67/208/52
o cuboid
v -0.09375 0.71875 0.0625
v -0.09375 0.71875 -0.0625
v -0.03125 0.53125 0.125
v -0.03125 0.53125 -0.125
v -0.34375 0.71875 0.0625
v -0.34375 0.71875 -0.0625
v -0.40625 0.53125 0.125
v -0.40625 0.53125 -0.125
vt 1 1
vt 0 1
vt 0 0.5
vt 1 0.5
vt 1 0.5
vt 1 1
vt 0 1
vt 0 0.5
vt 1 0
vt 1 1
vt 0 1
vt 0 0
vt 1 0.5
vt 1 1
vt 0 1
vt 0 0.5
vt 1 1
vt 0 1
vt 0 0.5
vt 1 0.5
vt 0 0
vt 1 0
vt 1 1
vt 0 1
vn 0.948683298050514 0.316227766016838 0
vn -0.948683298050514 0.316227766016838 0
vn 0 -1 0
vn 0 0.316227766016838 0.948683298050514
vn 0 0.316227766016838 -0.948683298050514
vn 0 1 0
usemtl none
f 74/209/53 73/210/53 75/211/53 76/212/53
f 79/213/54 77/214/54 78/215/54 80/216/54
f 76/217/55 75/218/55 79/219/55 80/220/55
f 75/221/56 73/222/56 77/223/56 79/224/56
f 78/225/57 74/226/57 76/227/57 80/228/57
f 77/229/58 73/230/58 74/231/58 78/232/58
o LightR
v 0.421875 0.140625 -0.25
v 0.421875 0.140625 -0.28125
v 0.421875 0.125 -0.25
v 0.421875 0.125 -0.28125
v 0.359375 0.140625 -0.28125
v 0.359375 0.140625 -0.25
v 0.359375 0.125 -0.28125
v 0.359375 0.125 -0.25
vt 0 1
vt 0.0625 1
vt 0.0625 0.984375
vt 0 0.984375
vt 0 1
vt 0.03125 1
vt 0.03125 0.984375
vt 0 0.984375
vt 0 1
vt 0.0625 1
vt 0.0625 0.984375
vt 0 0.984375
vt 0 1
vt 0.03125 1
vt 0.03125 0.984375
vt 0 0.984375
vt 0 1
vt 0.0625 1
vt 0.0625 0.96875
vt 0 0.96875
vt 0 1
vt 0.0625 1
vt 0.0625 0.96875
vt 0 0.96875
vn 0 0 -1
vn 1 0 0
vn 0 0 1
vn -1 0 0
vn 0 1 0
vn 0 -1 0
usemtl none
f 84/236/59 87/235/59 85/234/59 82/233/59
f 83/240/60 84/239/60 82/238/60 81/237/60
f 88/244/61 83/243/61 81/242/61 86/241/61
f 87/248/62 88/247/62 86/246/62 85/245/62
f 86/252/63 81/251/63 82/250/63 85/249/63
f 87/256/64 84/255/64 83/254/64 88/253/64
o LightG
v 0.34375 0.140625 -0.25
v 0.34375 0.140625 -0.28125
v 0.34375 0.125 -0.25
v 0.34375 0.125 -0.28125
v 0.28125 0.140625 -0.28125
v 0.28125 0.140625 -0.25
v 0.28125 0.125 -0.28125
v 0.28125 0.125 -0.25
vt 0 1
vt 0.0625 1
vt 0.0625 0.984375
vt 0 0.984375
vt 0 1
vt 0.03125 1
vt 0.03125 0.984375
vt 0 0.984375
vt 0 1
vt 0.0625 1
vt 0.0625 0.984375
vt 0 0.984375
vt 0 1
vt 0.03125 1
vt 0.03125 0.984375
vt 0 0.984375
vt 0 1
vt 0.0625 1
vt 0.0625 0.96875
vt 0 0.96875
vt 0 1
vt 0.0625 1
vt 0.0625 0.96875
vt 0 0.96875
vn 0 0 -1
vn 1 0 0
vn 0 0 1
vn -1 0 0
vn 0 1 0
vn 0 -1 0
usemtl none
f 92/260/65 95/259/65 93/258/65 90/257/65
f 91/264/66 92/263/66 90/262/66 89/261/66
f 96/268/67 91/267/67 89/266/67 94/265/67
f 95/272/68 96/271/68 94/270/68 93/269/68
f 94/276/69 89/275/69 90/274/69 93/273/69
f 95/280/70 92/279/70 91/278/70 96/277/70