# Made in Blockbench 4.11.1
mtllib lighthouse.mtl

o cylinder
v -9.25185853854297e-19 0 -4.625929269271485e-18
v -9.25185853854297e-19 1.5 -4.625929269271485e-18
v 0.06698729810778065 0 0.25
v 0.06698729810778065 1.5 0.25
v 0.18301270189221924 0 0.18301270189221933
v 0.18301270189221924 1.5 0.18301270189221933
v 0.25 0 0.06698729810778065
v 0.25 1.5 0.06698729810778065
v 0.25 0 -0.06698729810778069
v 0.25 1.5 -0.06698729810778069
v 0.18301270189221933 0 -0.18301270189221933
v 0.18301270189221933 1.5 -0.18301270189221933
v 0.06698729810778073 0 -0.24999999999999992
v 0.06698729810778073 1.5 -0.24999999999999992
v -0.06698729810778055 0 -0.25
v -0.06698729810778055 1.5 -0.25
v -0.18301270189221933 0 -0.18301270189221933
v -0.18301270189221933 1.5 -0.18301270189221933
v -0.24999999999999992 0 -0.06698729810778063
v -0.24999999999999992 1.5 -0.06698729810778063
v -0.25 0 0.06698729810778054
v -0.25 1.5 0.06698729810778054
v -0.1830127018922194 0 0.18301270189221924
v -0.1830127018922194 1.5 0.18301270189221924
v -0.06698729810778065 0 0.25
v -0.06698729810778065 1.5 0.25
vt 0.44631875958380607 0.8080906202080982
vt 0.4116440108013707 0.9375000000000012
vt 0.1875 0.8080906202080982
vt 0.0625000000000033 -0.5
vt 0.1964750000000033 -0.5
vt 0.1964750000000033 1
vt 0.0625000000000033 1
vt 0.06249999999999996 0.5536809026438543
vt 0.1919092109059536 0.5883562817181833
vt 0.0625 0.8125
vt 0.44631909735614567 0.8080907890940452
vt 0.41164371828181673 0.9374999999999988
vt 0.1875 0.8080907890940452
vt 0.0625000000000033 -0.5
vt 0.1964750000000033 -0.5
vt 0.1964750000000033 1
vt 0.0625000000000033 1
vt 0.06250000000000003 0.5536812404161939
vt 0.19190937979190303 0.5883559891986293
vt 0.0625 0.8125
vt 0.4375 0.8035249999999967
vt 0.4375 0.9374999999999967
vt 0.1875 0.8705124999999967
vt 0.0625000000000033 -0.5
vt 0.1964750000000033 -0.5
vt 0.1964750000000033 1
vt 0.0625000000000033 1
vt 0.4375 0.8035249999999967
vt 0.4375 0.9374999999999967
vt 0.1875 0.8705124999999967
vt 0.06250000000000003 0.5536812404161939
vt 0.19190937979190303 0.5883559891986293
vt 0.0625 0.8125
vt 0.0625000000000033 -0.5
vt 0.1964750000000033 -0.5
vt 0.1964750000000033 1
vt 0.0625000000000033 1
vt 0.44631909735614567 0.8080907890940452
vt 0.41164371828181673 0.9374999999999988
vt 0.1875 0.8080907890940452
vt 0.06249999999999996 0.5536809026438543
vt 0.1919092109059536 0.5883562817181833
vt 0.0625 0.8125
vt 0.0625000000000033 -0.5
vt 0.1964750000000033 -0.5
vt 0.1964750000000033 1
vt 0.0625000000000033 1
vt 0.44631875958380607 0.8080906202080982
vt 0.4116440108013707 0.9375000000000012
vt 0.1875 0.8080906202080982
vt 0.0625000000000033 0.5625
vt 0.1964750000000033 0.5625
vt 0.1294875000000033 0.8125
vt 0.0625000000000033 -0.5
vt 0.1964750000000033 -0.5
vt 0.1964750000000033 1
vt 0.0625000000000033 1
vt 0.1964750000000033 0.9375
vt 0.0625000000000033 0.9375
vt 0.1294875000000033 0.6875
vt 0.12499999999999756 0.9375
vt 0.1596747487824329 0.808090620208097
vt 0.3838187595838036 0.9375
vt 0.0625000000000033 -0.5
vt 0.1964750000000033 -0.5
vt 0.1964750000000033 1
vt 0.0625000000000033 1
vt 0.19190921090595486 0.8750000000000004
vt 0.06250000000000122 0.8403246209256714
vt 0.1919092109059548 0.6161809026438547
vt 0.12499999999999961 0.9375
vt 0.15967537907432855 0.8080907890940464
vt 0.3838190973561453 0.9375
vt 0.0625000000000033 -0.5
vt 0.1964750000000033 -0.5
vt 0.1964750000000033 1
vt 0.0625000000000033 1
vt 0.19190937979190179 0.8750000000000024
vt 0.06249999999999878 0.8403252512175671
vt 0.1919093797919018 0.6161812404161964
vt 0.0625 0.9374999999999967
vt 0.0625 0.8035249999999967
vt 0.3125 0.8705124999999967
vt 0.0625000000000033 -0.5
vt 0.1964750000000033 -0.5
vt 0.1964750000000033 1
vt 0.0625000000000033 1
vt 0.0625 0.9374999999999967
vt 0.0625 0.8035249999999967
vt 0.3125 0.8705124999999967
vt 0.19190937979190179 0.8750000000000024
vt 0.06249999999999878 0.8403252512175671
vt 0.1919093797919018 0.6161812404161964
vt 0.0625000000000033 -0.5
vt 0.1964750000000033 -0.5
vt 0.1964750000000033 1
vt 0.0625000000000033 1
vt 0.12499999999999961 0.9375
vt 0.15967537907432855 0.8080907890940464
vt 0.3838190973561453 0.9375
vt 0.19190921090595486 0.8750000000000004
vt 0.06250000000000122 0.8403246209256714
vt 0.1919092109059548 0.6161809026438547
vt 0.0625000000000033 -0.5
vt 0.1964750000000033 -0.5
vt 0.1964750000000033 1
vt 0.0625000000000033 1
vt 0.12499999999999756 0.9375
vt 0.1596747487824329 0.808090620208097
vt 0.3838187595838036 0.9375
vt 0.1964750000000033 0.9375
vt 0.0625000000000033 0.9375
vt 0.1294875000000033 0.6875
vt 0.0625000000000033 -0.5
vt 0.1964750000000033 -0.5
vt 0.1964750000000033 1
vt 0.0625000000000033 1
vt 0.0625000000000033 0.5625
vt 0.1964750000000033 0.5625
vt 0.1294875000000033 0.8125
vn 0 -1 0
vn 0.5000000000000001 0 0.8660254037844386
vn 0 1 0
vn 0 -1 0
vn 0.8660254037844386 0 0.5000000000000004
vn 0 1 0
vn 0 -1 0
vn 1 0 0
vn 0 1 0
vn 0 -1 0
vn 0.8660254037844387 0 -0.5000000000000001
vn 0 1 0
vn 0 -1 0
vn 0.49999999999999967 0 -0.8660254037844388
vn 0 1 0
vn 0 -1 0
vn 6.215113103450819e-16 0 -1
vn 0 1 0
vn 0 -1 0
vn -0.4999999999999996 0 -0.8660254037844389
vn 0 1 0
vn 0 -1 0
vn -0.866025403784439 0 -0.4999999999999994
vn 0 1 0
vn 0 -1 0
vn -1 0 -6.215113103450823e-16
vn 0 1 0
vn 0 -1 0
vn -0.866025403784439 0 0.49999999999999933
vn 0 1 0
vn 0 -1 0
vn -0.5000000000000001 0 0.8660254037844386
vn 0 1 0
vn 0 -1 0
vn 0 0 1
vn 0 1 0
usemtl none
f 5/1/1 3/2/1 1/3/1
f 3/4/2 5/5/2 6/6/2 4/7/2
f 4/8/3 6/9/3 2/10/3
f 7/11/4 5/12/4 1/13/4
f 5/14/5 7/15/5 8/16/5 6/17/5
f 6/18/6 8/19/6 2/20/6
f 9/21/7 7/22/7 1/23/7
f 7/24/8 9/25/8 10/26/8 8/27/8
f 8/28/9 10/29/9 2/30/9
f 11/31/10 9/32/10 1/33/10
f 9/34/11 11/35/11 12/36/11 10/37/11
f 10/38/12 12/39/12 2/40/12
f 13/41/13 11/42/13 1/43/13
f 11/44/14 13/45/14 14/46/14 12/47/14
f 12/48/15 14/49/15 2/50/15
f 15/51/16 13/52/16 1/53/16
f 13/54/17 15/55/17 16/56/17 14/57/17
f 14/58/18 16/59/18 2/60/18
f 17/61/19 15/62/19 1/63/19
f 15/64/20 17/65/20 18/66/20 16/67/20
f 16/68/21 18/69/21 2/70/21
f 19/71/22 17/72/22 1/73/22
f 17/74/23 19/75/23 20/76/23 18/77/23
f 18/78/24 20/79/24 2/80/24
f 21/81/25 19/82/25 1/83/25
f 19/84/26 21/85/26 22/86/26 20/87/26
f 20/88/27 22/89/27 2/90/27
f 23/91/28 21/92/28 1/93/28
f 21/94/29 23/95/29 24/96/29 22/97/29
f 22/98/30 24/99/30 2/100/30
f 25/101/31 23/102/31 1/103/31
f 23/104/32 25/105/32 26/106/32 24/107/32
f 24/108/33 26/109/33 2/110/33
f 3/111/34 25/112/34 1/113/34
f 25/114/35 3/115/35 4/116/35 26/117/35
f 26/118/36 4/119/36 2/120/36
o Dor
v -0.21875 0.25 0.09375
v -0.21875 0.25 -0.09375
v -0.21875 0 0.09375
v -0.21875 0 -0.09375
v -0.28125 0.25 0.09375
v -0.28125 0.25 -0.09375
v -0.28125 0 0.09375
v -0.28125 0 -0.09375
vt 1 1
vt 0 1
vt 0 0.5
vt 1 0.5
vt 1 0.5
vt 1 1
vt 0 1
vt 0 0.5
vt 0 0
vt 1 0
vt 1 1
vt 0 1
vt 1 0
vt 1 1
vt 0 1
vt 0 0
vt 1 0.5
vt 1 1
vt 0 1
vt 0 0.5
vt 1 1
vt 0 1
vt 0 0.5
vt 1 0.5
vn 1 0 0
vn -1 0 0
vn 0 1 0
vn 0 -1 0
vn 0 0 1
vn 0 0 -1
usemtl none
f 28/121/37 27/122/37 29/123/37 30/124/37
f 33/125/38 31/126/38 32/127/38 34/128/38
f 31/129/39 27/130/39 28/131/39 32/132/39
f 30/133/40 29/134/40 33/135/40 34/136/40
f 29/137/41 27/138/41 31/139/41 33/140/41
f 32/141/42 28/142/42 30/143/42 34/144/42