# Made in Blockbench 4.11.1
mtllib house.mtl

o cuboid
v 0.5 1 0.5
v 0.5 1 -0.5
v 0.5 0 0.5
v 0.5 0 -0.5
v -0.5 1 0.5
v -0.5 1 -0.5
v -0.5 0 0.5
v -0.5 0 -0.5
vt 1 1
vt 0 1
vt 0 0
vt 1 0
vt 1 0
vt 1 1
vt 0 1
vt 0 0
vt 0 0
vt 1 0
vt 1 1
vt 0 1
vt 1 0
vt 1 1
vt 0 1
vt 0 0
vt 1 0
vt 1 1
vt 0 1
vt 0 0
vt 1 1
vt 0 1
vt 0 0
vt 1 0
vn 1 0 0
vn -1 0 0
vn 0 1 0
vn 0 -1 0
vn 0 0 1
vn 0 0 -1
usemtl none
f 2/1/1 1/2/1 3/3/1 4/4/1
f 7/5/2 5/6/2 6/7/2 8/8/2
f 5/9/3 1/10/3 2/11/3 6/12/3
f 4/13/4 3/14/4 7/15/4 8/16/4
f 3/17/5 1/18/5 5/19/5 7/20/5
f 6/21/6 2/22/6 4/23/6 8/24/6
o cuboid
v 0.625 1 0.625
v 0.625 1 -0.625
v -0.625 1 0.625
v -0.625 1 -0.625
v 0 1.4375 0.625
v 0 1.4375 -0.625
vt 1.25 1
vt 0 1
vt 0 0
vt 1.25 0
vt 1.25 0
vt 1.25 1
vt 0 1
vt 0 0
vt 1.25 -0.25
vt 1.25 1
vt 0 1
vt 0 -0.25
vt 1.25 0
vt 0.625 1
vt 0 0
vt 0.625 1
vt 0 0
vt 1.25 0
vn 0.5734623443633283 0.8192319205190405 0
vn -0.5734623443633283 0.8192319205190405 0
vn 0 -1 0
vn 0 0 1
vn 0 0 -1
usemtl none
f 14/25/7 13/26/7 9/27/7 10/28/7
f 11/29/8 13/30/8 14/31/8 12/32/8
f 10/33/9 9/34/9 11/35/9 12/36/9
f 9/37/10 13/38/10 11/39/10
f 14/40/11 10/41/11 12/42/11